<?xml version="1.0" encoding="utf-8"?>
<!-- Generator: Adobe Illustrator 25.0.1, SVG Export Plug-In . SVG Version: 6.00 Build 0)  -->
<svg version="1.1" id="Capa_1" xmlns="http://www.w3.org/2000/svg" xmlns:xlink="http://www.w3.org/1999/xlink" x="0px" y="0px"
	 viewBox="0 0 127.6 127.6" style="enable-background:new 0 0 127.6 127.6;" xml:space="preserve">
<style type="text/css">
	.st0{fill:none;stroke:#F7B519;stroke-width:2;stroke-miterlimit:10;}
	.st1{fill:#F7B519;}
</style>
<g>
	<g>
		<path class="st0" d="M64.1,121.4L64.1,121.4C32,121.4,6,95.4,6,63.3l0,0C6,31.2,32,5.2,64.1,5.2l0,0c32.1,0,58.1,26,58.1,58.1l0,0
			C122.2,95.4,96.2,121.4,64.1,121.4z"/>
	</g>
	<path class="st1" d="M74.2,65.9H65v29.5H51.4V65.9H45V54.4h6.5v-7.5c0-5.3,2.5-13.7,13.7-13.7l10.1,0v11.2h-7.3
		c-1.2,0-2.9,0.6-2.9,3.2v6.8h10.4L74.2,65.9z"/>
</g>
</svg>
