<?xml version="1.0" encoding="utf-8"?>
<!-- Generator: Adobe Illustrator 25.0.1, SVG Export Plug-In . SVG Version: 6.00 Build 0)  -->
<svg version="1.1" id="Capa_1" xmlns="http://www.w3.org/2000/svg" xmlns:xlink="http://www.w3.org/1999/xlink" x="0px" y="0px"
	 viewBox="0 0 127.6 127.6" style="enable-background:new 0 0 127.6 127.6;" xml:space="preserve">
<style type="text/css">
	.st0{fill:none;stroke:#F7B519;stroke-width:2;stroke-miterlimit:10;}
	.st1{fill:#F7B519;}
</style>
<g>
	<g>
		<path class="st0" d="M63.8,121.9L63.8,121.9c-32.1,0-58.1-26-58.1-58.1l0,0c0-32.1,26-58.1,58.1-58.1l0,0
			c32.1,0,58.1,26,58.1,58.1l0,0C121.9,95.9,95.9,121.9,63.8,121.9z"/>
	</g>
	<g>
		<g>
			<path class="st1" d="M77.9,32.4H49.7c-9.6,0-17.3,7.8-17.3,17.3V78c0,9.6,7.8,17.3,17.3,17.3h28.2c9.6,0,17.3-7.8,17.3-17.3V49.8
				C95.2,40.2,87.4,32.4,77.9,32.4z M90.1,77.9c0,6.8-5.5,12.3-12.3,12.3H49.8c-6.8,0-12.3-5.5-12.3-12.3v-28
				c0-6.8,5.5-12.3,12.3-12.3h28.1c6.8,0,12.3,5.5,12.3,12.3V77.9z"/>
			<path class="st1" d="M63.8,47.3c-9.2,0-16.6,7.4-16.6,16.6s7.4,16.6,16.6,16.6S80.3,73,80.3,63.9S72.9,47.3,63.8,47.3z
				 M63.8,74.7c-6,0-10.8-4.8-10.8-10.8c0-6,4.8-10.8,10.8-10.8c6,0,10.8,4.8,10.8,10.8S69.7,74.7,63.8,74.7z"/>
			<path class="st1" d="M84.6,46.8c0,2-1.7,3.7-3.7,3.7c-2.1,0-3.7-1.7-3.7-3.7c0-2,1.7-3.7,3.7-3.7C83,43,84.6,44.7,84.6,46.8z"/>
		</g>
	</g>
</g>
</svg>
