<?xml version="1.0" encoding="utf-8"?>
<!-- Generator: Adobe Illustrator 25.0.1, SVG Export Plug-In . SVG Version: 6.00 Build 0)  -->
<svg version="1.1"
	 id="Capa_1" xmlns:cc="http://creativecommons.org/ns#" xmlns:dc="http://purl.org/dc/elements/1.1/" xmlns:inkscape="http://www.inkscape.org/namespaces/inkscape" xmlns:rdf="http://www.w3.org/1999/02/22-rdf-syntax-ns#" xmlns:sodipodi="http://sodipodi.sourceforge.net/DTD/sodipodi-0.dtd" xmlns:svg="http://www.w3.org/2000/svg"
	 xmlns="http://www.w3.org/2000/svg" xmlns:xlink="http://www.w3.org/1999/xlink" x="0px" y="0px" viewBox="0 0 82 52"
	 style="enable-background:new 0 0 82 52;" xml:space="preserve">
<style type="text/css">
	.st0{fill:#F7B519;}
</style>
<g transform="translate(0,-952.36218)">
	<path class="st0" d="M6,952.4c-1.2,0-2.3,0.4-3.2,0.9l35.5,30c1.6,1.4,3.8,1.4,5.4,0l35.4-30c-0.9-0.6-2-0.9-3.2-0.9H6z M0.3,956.4
		c-0.2,0.6-0.3,1.3-0.3,2v40c0,1.2,0.4,2.3,1,3.2l25.4-23.2L0.3,956.4z M81.7,956.4l-26,22l25.3,23.2c0.6-0.9,1-2,1-3.2v-40
		C82,957.7,81.9,957,81.7,956.4z M52.6,981l-6.3,5.3c-3.1,2.6-7.5,2.6-10.6,0l-6.3-5.3l-25.2,23c0.6,0.2,1.2,0.3,1.8,0.3h70
		c0.6,0,1.2-0.1,1.8-0.3C77.8,1004.1,52.6,981,52.6,981z"/>
</g>
</svg>
