<?xml version="1.0" encoding="utf-8"?>
<!-- Generator: Adobe Illustrator 25.0.1, SVG Export Plug-In . SVG Version: 6.00 Build 0)  -->
<svg version="1.1"
	 id="Capa_1" xmlns:cc="http://creativecommons.org/ns#" xmlns:dc="http://purl.org/dc/elements/1.1/" xmlns:inkscape="http://www.inkscape.org/namespaces/inkscape" xmlns:rdf="http://www.w3.org/1999/02/22-rdf-syntax-ns#" xmlns:sodipodi="http://sodipodi.sourceforge.net/DTD/sodipodi-0.dtd" xmlns:svg="http://www.w3.org/2000/svg"
	 xmlns="http://www.w3.org/2000/svg" xmlns:xlink="http://www.w3.org/1999/xlink" x="0px" y="0px" viewBox="0 0 82 52"
	 style="enable-background:new 0 0 82 52;" xml:space="preserve">
<style type="text/css">
	.st0{fill:#F7B519;}
</style>
<g>
	<path class="st0" d="M58.1,51.3C46.5,55,16.4,21.1,16.2,9.9c0-2.8,1.1-4.8,3.4-5.9c2.4-1.1,4.6-2.5,7-3.6c1.5-0.7,2.6-0.6,3.6,0.8
		c3,3.9,5.7,7.3,7.9,10.3c1,1.4,1,2.5-0.1,3.7c-1,1.2-2.1,2.3-3,3.5C33.1,21.5,45.1,34.4,47.6,32c1.1-1,2.3-1.8,3.5-2.8
		c1.4-1,2.5-1.1,3.9,0c1.6,1.4,10.6,8.4,10.9,10.2C66.2,42.2,59.3,49.8,58.1,51.3L58.1,51.3z"/>
</g>
</svg>
