<?xml version="1.0" encoding="utf-8"?>
<!-- Generator: Adobe Illustrator 25.0.1, SVG Export Plug-In . SVG Version: 6.00 Build 0)  -->
<svg version="1.1" id="Capa_1" xmlns="http://www.w3.org/2000/svg" xmlns:xlink="http://www.w3.org/1999/xlink" x="0px" y="0px"
	 viewBox="0 0 127.6 127.6" style="enable-background:new 0 0 127.6 127.6;" xml:space="preserve">
<style type="text/css">
	.st0{fill:none;stroke:#F7B519;stroke-width:2;stroke-miterlimit:10;}
	.st1{fill:#F7B519;}
</style>
<g>
	<g>
		<g>
			<g>
				<g>
					<path class="st0" d="M63.8,121.9L63.8,121.9c-32.1,0-58.1-26-58.1-58.1l0,0c0-32.1,26-58.1,58.1-58.1l0,0
						c32.1,0,58.1,26,58.1,58.1l0,0C121.9,95.9,95.9,121.9,63.8,121.9z"/>
				</g>
			</g>
		</g>
		<g>
			<path class="st1" d="M96.4,47.2c-2.2,1-4.6,1.6-7.1,1.9c2.5-1.5,4.5-3.9,5.4-6.8c-2.4,1.4-5,2.4-7.8,3c-2.2-2.4-5.4-3.9-9-3.9
				c-6.8,0-12.3,5.5-12.3,12.3c0,1,0.1,1.9,0.3,2.8C55.7,56,46.6,51.1,40.5,43.6c-1.1,1.8-1.7,3.9-1.7,6.2c0,4.3,2.2,8,5.5,10.3
				c-2-0.1-3.9-0.6-5.6-1.5c0,0,0,0.1,0,0.2c0,6,4.2,11,9.9,12.1c-1,0.3-2.1,0.4-3.2,0.4c-0.8,0-1.6-0.1-2.3-0.2
				c1.6,4.9,6.1,8.5,11.5,8.6c-4.2,3.3-9.5,5.3-15.3,5.3c-1,0-2-0.1-2.9-0.2c5.5,3.5,11.9,5.5,18.9,5.5c22.7,0,35.1-18.8,35.1-35.1
				c0-0.5,0-1.1,0-1.6C92.7,51.8,94.8,49.6,96.4,47.2L96.4,47.2z"/>
		</g>
	</g>
</g>
</svg>
