<?xml version="1.0" encoding="utf-8"?>
<!-- Generator: Adobe Illustrator 25.0.1, SVG Export Plug-In . SVG Version: 6.00 Build 0)  -->
<svg version="1.1"
	 id="Capa_1" xmlns:cc="http://creativecommons.org/ns#" xmlns:dc="http://purl.org/dc/elements/1.1/" xmlns:inkscape="http://www.inkscape.org/namespaces/inkscape" xmlns:rdf="http://www.w3.org/1999/02/22-rdf-syntax-ns#" xmlns:sodipodi="http://sodipodi.sourceforge.net/DTD/sodipodi-0.dtd" xmlns:svg="http://www.w3.org/2000/svg"
	 xmlns="http://www.w3.org/2000/svg" xmlns:xlink="http://www.w3.org/1999/xlink" x="0px" y="0px" viewBox="0 0 82 52"
	 style="enable-background:new 0 0 82 52;" xml:space="preserve">
<style type="text/css">
	.st0{fill:#F7B519;}
</style>
<g transform="translate(0,-952.36218)">
	<g transform="translate(9.996063,962.85431)">
		<path class="st0" d="M25.9-10.5C18.8-9.1,12.8-4.9,9,0.9h9.7C20.3-4.2,22.9-8.3,25.9-10.5z M36.1-10.5c3,2.2,5.5,6.2,7.2,11.4H53
			C49.2-4.9,43.2-9.1,36.1-10.5z M32.3-9.5V0.9h8.5C38.9-4.7,35.9-8.7,32.3-9.5z M29.7-9.5c-3.5,0.8-6.5,4.8-8.3,10.4h8.3
			C29.7,0.9,29.7-9.5,29.7-9.5z M7.5,3.6c-1.6,3.2-2.6,6.8-2.8,10.6h11.8c0.1-3.8,0.6-7.3,1.4-10.6H7.5z M20.6,3.6
			c-0.8,3.2-1.3,6.8-1.4,10.6h10.4V3.6H20.6z M32.3,3.6v10.6h10.6c-0.1-3.8-0.6-7.4-1.4-10.6H32.3z M44.1,3.6
			c0.8,3.2,1.3,6.8,1.4,10.6h11.8c-0.2-3.8-1.2-7.4-2.8-10.6H44.1z M4.7,16.8c0.2,3.8,1.2,7.4,2.8,10.6h10.4
			c-0.8-3.2-1.3-6.8-1.4-10.6H4.7z M19.2,16.8c0.1,3.8,0.6,7.4,1.4,10.6h9.1V16.8C29.7,16.8,19.2,16.8,19.2,16.8z M32.3,16.8v10.6
			h9.2c0.8-3.2,1.3-6.8,1.4-10.6H32.3z M45.5,16.8c-0.1,3.8-0.6,7.4-1.4,10.6h10.4c1.6-3.2,2.6-6.8,2.8-10.6H45.5z M9,30.1
			c3.8,5.8,9.8,10,16.8,11.4c-3-2.2-5.5-6.2-7.2-11.4C18.7,30.1,9,30.1,9,30.1z M21.4,30.1c1.9,5.6,4.8,9.6,8.3,10.4V30.1
			C29.7,30.1,21.4,30.1,21.4,30.1z M32.3,30.1v10.5c3.6-0.8,6.6-4.8,8.5-10.5H32.3z M43.3,30.1c-1.7,5.2-4.2,9.2-7.2,11.4
			c7-1.4,13-5.6,16.8-11.4C53,30.1,43.3,30.1,43.3,30.1z"/>
	</g>
</g>
</svg>
